<svg xmlns="http://www.w3.org/2000/svg" xmlns:xlink="http://www.w3.org/1999/xlink" id="exportSvg" width="600" height="400"><defs/><g><g id="__svelte-dw-svg" clip-path="url(#rect-mask-__svelte-dw-CZTiaKkPs7PrbxqfKAkMf)"><clipPath id="rect-mask-__svelte-dw-CZTiaKkPs7PrbxqfKAkMf"><rect x="0" y="0" width="600" height="400"/></clipPath><g id="header-svg"><text transform="translate(0, 0)"><tspan fill="rgb(0,0,0)" x="0" y="22" style="font-family: Roboto; font-weight: 700; font-stretch: 100%; font-size: 22px;">National Clearance Rate, 1965-present</tspan></text></g><g id="chart-svg"><g id="svg-main-svg" clip-path="url(#rect-mask-svg-main-EedpXXF0Nd0jYos-DvTLl)" transform="translate(0.00000, 35.00000)"><clipPath id="rect-mask-svg-main-EedpXXF0Nd0jYos-DvTLl"><rect x="0" y="0" width="600" height="365"/></clipPath><g id="group-svg" transform="translate(19.75, 6)"><g id="y-grid-lines-svg grid-y-svg datawrapper-Zr3TR-1fn7900-svg"><line x1="0" x2="518.25" y1="0" y2="0" transform="translate(0, 296.625)" style="fill: none; stroke-width: 1; stroke-linejoin: miter; stroke-linecap: butt; stroke: rgb(231, 231, 231);"/><line x1="0" x2="518.25" y1="0" y2="0" transform="translate(0, 243.65625)" style="fill: none; stroke-width: 1; stroke-linejoin: miter; stroke-linecap: butt; stroke: rgb(231, 231, 231);"/><line x1="0" x2="518.25" y1="0" y2="0" transform="translate(0, 190.6875)" style="fill: none; stroke-width: 1; stroke-linejoin: miter; stroke-linecap: butt; stroke: rgb(231, 231, 231);"/><line x1="0" x2="518.25" y1="0" y2="0" transform="translate(0, 137.71875)" style="fill: none; stroke-width: 1; stroke-linejoin: miter; stroke-linecap: butt; stroke: rgb(231, 231, 231);"/><line x1="0" x2="518.25" y1="0" y2="0" transform="translate(0, 84.75)" style="fill: none; stroke-width: 1; stroke-linejoin: miter; stroke-linecap: butt; stroke: rgb(231, 231, 231);"/><line x1="0" x2="518.25" y1="0" y2="0" transform="translate(0, 31.78125)" style="fill: none; stroke-width: 1; stroke-linejoin: miter; stroke-linecap: butt; stroke: rgb(231, 231, 231);"/></g><g id="lines-svg"><g id="clearance-svg rate-svg"><path d="M9.628425452605297,0L18.695156805631886,10.59375L27.761888158658476,21.1875L36.82861951168507,42.375L45.920191224582965,31.78125L54.986922577609555,21.1875L64.05365393063614,42.375L73.12038528366273,63.5625L82.21195699656063,63.5625L91.27868834958721,52.96875L100.34541970261381,52.96875L109.4121510556404,31.78125L118.50372276853828,84.75L127.57045412156488,74.15625L136.6371854745915,95.34375L145.70391682761806,116.53125L154.79548854051595,127.125L163.86221989354254,158.90625L172.9289512465691,105.9375L181.9956825995957,95.34375L191.08725431249363,148.3125L200.15398566552022,137.71875L209.2207170185468,158.90625L218.2874483715734,158.90625L227.37902008447128,243.65625L236.44575143749788,180.09375L245.51248279052447,211.875L254.57921414355107,201.28125L263.67078585644896,211.875L272.7375172094755,222.46875L281.80424856250215,264.84375L290.8709799155287,254.25L299.9625516284266,233.0625L309.0292829814532,211.875L318.09601433447983,211.875L327.16274568750634,264.84375L336.25431740040426,275.4375L345.3210487534309,264.84375L354.38778010645746,286.03125L363.454511459484,286.03125L372.54608317238194,286.03125L381.61281452540857,296.625L390.6795458784351,296.625L399.7462772314617,264.84375L408.8378489443596,254.25L417.9045802973862,264.84375L426.97131165041276,264.84375L436.0380430034394,286.03125L445.1296147163373,233.0625L454.1963460693638,233.0625L463.26307742239044,254.25L472.32980877541706,286.03125L481.4213804883149,264.84375L490.4881118413415,254.25L499.5548431943681,264.84375L508.62157454739474,339" stroke="rgb(24,161,205)" id="clearance rate" style="mix-blend-mode: normal; fill: none; stroke-width: 2; stroke-linejoin: round; stroke-linecap: round; stroke: rgb(24, 161, 205);"/></g></g><g id="line-symbols-svg"/><g id="lbl-connect-lines-svg"/><g id="x-tick-labels-svg grid-x-svg date-axis-svg datawrapper-Zr3TR-z0zebm-svg" transform="translate(0, 344)"><text transform="translate(9.628425452605297, 12) translate(-13.61719, 0.00000) translate(13.6171875, 0)" style="text-anchor: middle;"><tspan fill="rgb(116, 116, 116)" style="font-family: Roboto; font-weight: 400; font-stretch: 100%; font-size: 12px;" x="0" dominant-baseline="auto" y="0">1965</tspan></text><text transform="translate(54.986922577609555, 12) translate(-13.61719, 0.00000) translate(13.6171875, 0)" style="text-anchor: middle;"><tspan fill="rgb(116, 116, 116)" style="font-family: Roboto; font-weight: 400; font-stretch: 100%; font-size: 12px;" x="0" dominant-baseline="auto" y="0">1970</tspan></text><text transform="translate(100.34541970261381, 12) translate(-13.61719, 0.00000) translate(13.617191314697266, 0)" style="text-anchor: middle;"><tspan fill="rgb(116, 116, 116)" style="font-family: Roboto; font-weight: 400; font-stretch: 100%; font-size: 12px;" x="0" dominant-baseline="auto" y="0">1975</tspan></text><text transform="translate(145.70391682761806, 12) translate(-13.61719, 0.00000) translate(13.6171875, 0)" style="text-anchor: middle;"><tspan fill="rgb(116, 116, 116)" style="font-family: Roboto; font-weight: 400; font-stretch: 100%; font-size: 12px;" x="0" dominant-baseline="auto" y="0">1980</tspan></text><text transform="translate(191.08725431249363, 12) translate(-13.61719, 0.00000) translate(13.6171875, 0)" style="text-anchor: middle;"><tspan fill="rgb(116, 116, 116)" style="font-family: Roboto; font-weight: 400; font-stretch: 100%; font-size: 12px;" x="0" dominant-baseline="auto" y="0">1985</tspan></text><text transform="translate(236.44575143749788, 12) translate(-13.61718, 0.00000) translate(13.617179870605469, 0)" style="text-anchor: middle;"><tspan fill="rgb(116, 116, 116)" style="font-family: Roboto; font-weight: 400; font-stretch: 100%; font-size: 12px;" x="0" dominant-baseline="auto" y="0">1990</tspan></text><text transform="translate(281.80424856250215, 12) translate(-13.61719, 0.00000) translate(13.6171875, 0)" style="text-anchor: middle;"><tspan fill="rgb(116, 116, 116)" style="font-family: Roboto; font-weight: 400; font-stretch: 100%; font-size: 12px;" x="0" dominant-baseline="auto" y="0">1995</tspan></text><text transform="translate(327.16274568750634, 12) translate(-13.61719, 0.00000) translate(13.6171875, 0)" style="text-anchor: middle;"><tspan fill="rgb(116, 116, 116)" style="font-family: Roboto; font-weight: 400; font-stretch: 100%; font-size: 12px;" x="0" dominant-baseline="auto" y="0">2000</tspan></text><text transform="translate(372.54608317238194, 12) translate(-13.61719, 0.00000) translate(13.6171875, 0)" style="text-anchor: middle;"><tspan fill="rgb(116, 116, 116)" style="font-family: Roboto; font-weight: 400; font-stretch: 100%; font-size: 12px;" x="0" dominant-baseline="auto" y="0">2005</tspan></text><text transform="translate(417.9045802973862, 12) translate(-13.61719, 0.00000) translate(13.6171875, 0)" style="text-anchor: middle;"><tspan fill="rgb(116, 116, 116)" style="font-family: Roboto; font-weight: 400; font-stretch: 100%; font-size: 12px;" x="0" dominant-baseline="auto" y="0">2010</tspan></text><text transform="translate(463.26307742239044, 12) translate(-13.61719, 0.00000) translate(13.6171875, 0)" style="text-anchor: middle;"><tspan fill="rgb(116, 116, 116)" style="font-family: Roboto; font-weight: 400; font-stretch: 100%; font-size: 12px;" x="0" dominant-baseline="auto" y="0">2015</tspan></text><text transform="translate(508.62157454739474, 12) translate(-13.61719, 0.00000) translate(13.6171875, 0)" style="text-anchor: middle;"><tspan fill="rgb(116, 116, 116)" style="font-family: Roboto; font-weight: 400; font-stretch: 100%; font-size: 12px;" x="0" dominant-baseline="auto" y="0">2020</tspan></text></g><g id="x-base-lines-svg grid-x-svg datawrapper-Zr3TR-1io9s9d-svg"/><g id="y-tick-labels-svg grid-y-svg number-axis-svg datawrapper-Zr3TR-1q7vauq-svg" transform="translate(-5, 0)"><text transform="translate(0, 300.625) translate(-13.75000, 0.00000) translate(13.75, 0)" style="text-anchor: end;"><tspan fill="rgb(162, 162, 162)" style="font-family: Roboto; font-weight: 400; font-stretch: 100%; font-size: 12px;" x="0" dominant-baseline="auto" y="0">55</tspan></text><text transform="translate(0, 247.65625) translate(-13.75000, 0.00000) translate(13.75, 0)" style="text-anchor: end;"><tspan fill="rgb(162, 162, 162)" style="font-family: Roboto; font-weight: 400; font-stretch: 100%; font-size: 12px;" x="0" dominant-baseline="auto" y="0">60</tspan></text><text transform="translate(0, 194.6875) translate(-13.75000, 0.00000) translate(13.75, 0)" style="text-anchor: end;"><tspan fill="rgb(162, 162, 162)" style="font-family: Roboto; font-weight: 400; font-stretch: 100%; font-size: 12px;" x="0" dominant-baseline="auto" y="0">65</tspan></text><text transform="translate(0, 141.71875) translate(-13.75000, 0.00000) translate(13.75, 0)" style="text-anchor: end;"><tspan fill="rgb(162, 162, 162)" style="font-family: Roboto; font-weight: 400; font-stretch: 100%; font-size: 12px;" x="0" dominant-baseline="auto" y="0">70</tspan></text><text transform="translate(0, 88.75) translate(-13.75000, 0.00000) translate(13.75, 0)" style="text-anchor: end;"><tspan fill="rgb(162, 162, 162)" style="font-family: Roboto; font-weight: 400; font-stretch: 100%; font-size: 12px;" x="0" dominant-baseline="auto" y="0">75</tspan></text><text transform="translate(0, 35.78125) translate(-13.75000, 0.00000) translate(13.75, 0)" style="text-anchor: end;"><tspan fill="rgb(162, 162, 162)" style="font-family: Roboto; font-weight: 400; font-stretch: 100%; font-size: 12px;" x="0" dominant-baseline="auto" y="0">80</tspan></text></g><g id="y-base-lines-svg grid-y-svg datawrapper-Zr3TR-1io9s9d-svg"/></g></g><text transform="translate(538, 375)" id="clearance rate"><tspan fill="rgb(24,24,24)" x="0" y="12" style="font-family: Roboto; font-weight: 400; font-stretch: 100%; font-size: 12px;">clearance</tspan><tspan fill="rgb(24,24,24)" x="0" y="26" style="font-family: Roboto; font-weight: 400; font-stretch: 100%; font-size: 12px;">rate</tspan></text><g id="tooltip-layer-svg" clip-path="url(#rect-mask-tooltip-layer-PXRQjKK-f6KhnhkT3868G)" transform="translate(0.00000, 35.00000)"><clipPath id="rect-mask-tooltip-layer-PXRQjKK-f6KhnhkT3868G"><rect x="0" y="0" width="600" height="365"/></clipPath><g id="group-svg" transform="translate(19.75, 6)"/></g></g><g id="footer-svg"/></g></g></svg>