<svg xmlns="http://www.w3.org/2000/svg" xmlns:xlink="http://www.w3.org/1999/xlink" id="exportSvg" width="1500" height="1200"><defs/><g><g id="__svelte-dw-svg" clip-path="url(#rect-mask-__svelte-dw-gVPrHoyqTxmZv_9E5Zx-q)"><clipPath id="rect-mask-__svelte-dw-gVPrHoyqTxmZv_9E5Zx-q"><rect x="0" y="0" width="1500" height="1200"/></clipPath><g id="header-svg"><text transform="translate(0, 0)"><tspan fill="rgb(0,0,0)" x="0" y="22" style="font-family: Roboto; font-weight: 700; font-stretch: 100%; font-size: 22px;">National Clearance Rate, 1965-present</tspan></text></g><g id="chart-svg"><g id="svg-main-svg" clip-path="url(#rect-mask-svg-main-zOT3pXh0brDXQIduKMugz)" transform="translate(0.00000, 35.00000)"><clipPath id="rect-mask-svg-main-zOT3pXh0brDXQIduKMugz"><rect x="0" y="0" width="1500" height="1165"/></clipPath><g id="group-svg" transform="translate(19.75, 7)"><g id="y-grid-lines-svg grid-y-svg datawrapper-Zr3TR-1fn7900-svg"><line x1="0" x2="1418.25" y1="0" y2="0" transform="translate(0, 1138)" style="fill: none; stroke-width: 1; stroke-linejoin: miter; stroke-linecap: butt; stroke: rgb(231, 231, 231);"/><line x1="0" x2="1418.25" y1="0" y2="0" transform="translate(0, 1102.4375)" style="fill: none; stroke-width: 1; stroke-linejoin: miter; stroke-linecap: butt; stroke: rgb(231, 231, 231);"/><line x1="0" x2="1418.25" y1="0" y2="0" transform="translate(0, 1066.875)" style="fill: none; stroke-width: 1; stroke-linejoin: miter; stroke-linecap: butt; stroke: rgb(231, 231, 231);"/><line x1="0" x2="1418.25" y1="0" y2="0" transform="translate(0, 1031.3125)" style="fill: none; stroke-width: 1; stroke-linejoin: miter; stroke-linecap: butt; stroke: rgb(231, 231, 231);"/><line x1="0" x2="1418.25" y1="0" y2="0" transform="translate(0, 995.75)" style="fill: none; stroke-width: 1; stroke-linejoin: miter; stroke-linecap: butt; stroke: rgb(231, 231, 231);"/><line x1="0" x2="1418.25" y1="0" y2="0" transform="translate(0, 960.1875)" style="fill: none; stroke-width: 1; stroke-linejoin: miter; stroke-linecap: butt; stroke: rgb(231, 231, 231);"/><line x1="0" x2="1418.25" y1="0" y2="0" transform="translate(0, 924.625)" style="fill: none; stroke-width: 1; stroke-linejoin: miter; stroke-linecap: butt; stroke: rgb(231, 231, 231);"/><line x1="0" x2="1418.25" y1="0" y2="0" transform="translate(0, 889.0625)" style="fill: none; stroke-width: 1; stroke-linejoin: miter; stroke-linecap: butt; stroke: rgb(231, 231, 231);"/><line x1="0" x2="1418.25" y1="0" y2="0" transform="translate(0, 853.5)" style="fill: none; stroke-width: 1; stroke-linejoin: miter; stroke-linecap: butt; stroke: rgb(231, 231, 231);"/><line x1="0" x2="1418.25" y1="0" y2="0" transform="translate(0, 817.9375)" style="fill: none; stroke-width: 1; stroke-linejoin: miter; stroke-linecap: butt; stroke: rgb(231, 231, 231);"/><line x1="0" x2="1418.25" y1="0" y2="0" transform="translate(0, 782.375)" style="fill: none; stroke-width: 1; stroke-linejoin: miter; stroke-linecap: butt; stroke: rgb(231, 231, 231);"/><line x1="0" x2="1418.25" y1="0" y2="0" transform="translate(0, 746.8125)" style="fill: none; stroke-width: 1; stroke-linejoin: miter; stroke-linecap: butt; stroke: rgb(231, 231, 231);"/><line x1="0" x2="1418.25" y1="0" y2="0" transform="translate(0, 711.25)" style="fill: none; stroke-width: 1; stroke-linejoin: miter; stroke-linecap: butt; stroke: rgb(231, 231, 231);"/><line x1="0" x2="1418.25" y1="0" y2="0" transform="translate(0, 675.6875)" style="fill: none; stroke-width: 1; stroke-linejoin: miter; stroke-linecap: butt; stroke: rgb(231, 231, 231);"/><line x1="0" x2="1418.25" y1="0" y2="0" transform="translate(0, 640.125)" style="fill: none; stroke-width: 1; stroke-linejoin: miter; stroke-linecap: butt; stroke: rgb(231, 231, 231);"/><line x1="0" x2="1418.25" y1="0" y2="0" transform="translate(0, 604.5625)" style="fill: none; stroke-width: 1; stroke-linejoin: miter; stroke-linecap: butt; stroke: rgb(231, 231, 231);"/><line x1="0" x2="1418.25" y1="0" y2="0" transform="translate(0, 569)" style="fill: none; stroke-width: 1; stroke-linejoin: miter; stroke-linecap: butt; stroke: rgb(231, 231, 231);"/><line x1="0" x2="1418.25" y1="0" y2="0" transform="translate(0, 533.4375)" style="fill: none; stroke-width: 1; stroke-linejoin: miter; stroke-linecap: butt; stroke: rgb(231, 231, 231);"/><line x1="0" x2="1418.25" y1="0" y2="0" transform="translate(0, 497.875)" style="fill: none; stroke-width: 1; stroke-linejoin: miter; stroke-linecap: butt; stroke: rgb(231, 231, 231);"/><line x1="0" x2="1418.25" y1="0" y2="0" transform="translate(0, 462.3125)" style="fill: none; stroke-width: 1; stroke-linejoin: miter; stroke-linecap: butt; stroke: rgb(231, 231, 231);"/><line x1="0" x2="1418.25" y1="0" y2="0" transform="translate(0, 426.75)" style="fill: none; stroke-width: 1; stroke-linejoin: miter; stroke-linecap: butt; stroke: rgb(231, 231, 231);"/><line x1="0" x2="1418.25" y1="0" y2="0" transform="translate(0, 391.1875)" style="fill: none; stroke-width: 1; stroke-linejoin: miter; stroke-linecap: butt; stroke: rgb(231, 231, 231);"/><line x1="0" x2="1418.25" y1="0" y2="0" transform="translate(0, 355.625)" style="fill: none; stroke-width: 1; stroke-linejoin: miter; stroke-linecap: butt; stroke: rgb(231, 231, 231);"/><line x1="0" x2="1418.25" y1="0" y2="0" transform="translate(0, 320.0625)" style="fill: none; stroke-width: 1; stroke-linejoin: miter; stroke-linecap: butt; stroke: rgb(231, 231, 231);"/><line x1="0" x2="1418.25" y1="0" y2="0" transform="translate(0, 284.5)" style="fill: none; stroke-width: 1; stroke-linejoin: miter; stroke-linecap: butt; stroke: rgb(231, 231, 231);"/><line x1="0" x2="1418.25" y1="0" y2="0" transform="translate(0, 248.9375)" style="fill: none; stroke-width: 1; stroke-linejoin: miter; stroke-linecap: butt; stroke: rgb(231, 231, 231);"/><line x1="0" x2="1418.25" y1="0" y2="0" transform="translate(0, 213.375)" style="fill: none; stroke-width: 1; stroke-linejoin: miter; stroke-linecap: butt; stroke: rgb(231, 231, 231);"/><line x1="0" x2="1418.25" y1="0" y2="0" transform="translate(0, 177.8125)" style="fill: none; stroke-width: 1; stroke-linejoin: miter; stroke-linecap: butt; stroke: rgb(231, 231, 231);"/><line x1="0" x2="1418.25" y1="0" y2="0" transform="translate(0, 142.25)" style="fill: none; stroke-width: 1; stroke-linejoin: miter; stroke-linecap: butt; stroke: rgb(231, 231, 231);"/><line x1="0" x2="1418.25" y1="0" y2="0" transform="translate(0, 106.6875)" style="fill: none; stroke-width: 1; stroke-linejoin: miter; stroke-linecap: butt; stroke: rgb(231, 231, 231);"/><line x1="0" x2="1418.25" y1="0" y2="0" transform="translate(0, 71.125)" style="fill: none; stroke-width: 1; stroke-linejoin: miter; stroke-linecap: butt; stroke: rgb(231, 231, 231);"/><line x1="0" x2="1418.25" y1="0" y2="0" transform="translate(0, 35.5625)" style="fill: none; stroke-width: 1; stroke-linejoin: miter; stroke-linecap: butt; stroke: rgb(231, 231, 231);"/><line x1="0" x2="1418.25" y1="0" y2="0" transform="translate(0, 0)" style="fill: none; stroke-width: 1; stroke-linejoin: miter; stroke-linecap: butt; stroke: rgb(231, 231, 231);"/></g><g id="lines-svg"><g id="clearance-svg rate-svg"><path d="M9.86094211694785,0L35.27227038529851,35.5625L60.68359865364917,71.125L86.09492692199983,142.25L111.57587526779804,106.6875L136.98720353614868,71.125L162.39853180449936,142.25L187.80986007285003,213.375L213.2908084186482,213.375L238.70213668699887,177.8125L264.1134649553495,177.8125L289.5247932237002,106.6875L315.00574156949835,284.5L340.417069837849,248.9375L365.8283981061997,320.0625L391.23972637455034,391.1875L416.7206747203486,426.75L442.13200298869924,533.4375L467.5433312570499,355.625L492.95465952540053,320.0625L518.4356078711987,497.875L543.8469361395494,462.3125L569.2582644079001,533.4375L594.6695926762508,533.4375L620.150541022049,817.9375L645.5618692903996,604.5625L670.9731975587503,711.25L696.3845258271009,675.6875L721.8654741728991,711.25L747.2768024412499,746.8125L772.6881307096004,889.0625L798.0994589779511,853.5L823.5804073237493,782.375L848.9917355920999,711.25L874.4030638604506,711.25L899.8143921288012,889.0625L925.2953404745994,924.625L950.7066687429501,889.0625L976.1179970113008,960.1875L1001.5293252796514,960.1875L1027.0102736254496,960.1875L1052.4216018938005,995.75L1077.832930162151,995.75L1103.2442584305018,889.0625L1128.7252067763,853.5L1154.1365350446504,889.0625L1179.5478633130012,889.0625L1204.9591915813517,960.1875L1230.4401399271499,782.375L1255.8514681955007,782.375L1281.2627964638511,853.5L1306.674124732202,960.1875L1332.1550730780002,889.0625L1357.5664013463509,853.5L1382.9777296147015,889.0625L1408.3890578830521,1138" stroke="rgb(24,161,205)" id="clearance rate" style="mix-blend-mode: normal; fill: none; stroke-width: 2; stroke-linejoin: round; stroke-linecap: round; stroke: rgb(24, 161, 205);"/></g></g><g id="line-symbols-svg"/><g id="lbl-connect-lines-svg"/><g id="x-tick-labels-svg grid-x-svg date-axis-svg datawrapper-Zr3TR-z0zebm-svg" transform="translate(0, 1143)"><text transform="translate(35.27227038529851, 12) translate(-13.61719, 0.00000) translate(13.6171875, 0)" style="text-anchor: middle;"><tspan fill="rgb(116, 116, 116)" style="font-family: Roboto; font-weight: 400; font-stretch: 100%; font-size: 12px;" x="0" dominant-baseline="auto" y="0">1966</tspan></text><text transform="translate(86.09492692199983, 12) translate(-13.61719, 0.00000) translate(13.6171875, 0)" style="text-anchor: middle;"><tspan fill="rgb(116, 116, 116)" style="font-family: Roboto; font-weight: 400; font-stretch: 100%; font-size: 12px;" x="0" dominant-baseline="auto" y="0">1968</tspan></text><text transform="translate(136.98720353614868, 12) translate(-13.61719, 0.00000) translate(13.6171875, 0)" style="text-anchor: middle;"><tspan fill="rgb(116, 116, 116)" style="font-family: Roboto; font-weight: 400; font-stretch: 100%; font-size: 12px;" x="0" dominant-baseline="auto" y="0">1970</tspan></text><text transform="translate(187.80986007285003, 12) translate(-13.61719, 0.00000) translate(13.6171875, 0)" style="text-anchor: middle;"><tspan fill="rgb(116, 116, 116)" style="font-family: Roboto; font-weight: 400; font-stretch: 100%; font-size: 12px;" x="0" dominant-baseline="auto" y="0">1972</tspan></text><text transform="translate(238.70213668699887, 12) translate(-13.61720, 0.00000) translate(13.617195129394531, 0)" style="text-anchor: middle;"><tspan fill="rgb(116, 116, 116)" style="font-family: Roboto; font-weight: 400; font-stretch: 100%; font-size: 12px;" x="0" dominant-baseline="auto" y="0">1974</tspan></text><text transform="translate(289.5247932237002, 12) translate(-13.61719, 0.00000) translate(13.6171875, 0)" style="text-anchor: middle;"><tspan fill="rgb(116, 116, 116)" style="font-family: Roboto; font-weight: 400; font-stretch: 100%; font-size: 12px;" x="0" dominant-baseline="auto" y="0">1976</tspan></text><text transform="translate(340.417069837849, 12) translate(-13.61719, 0.00000) translate(13.6171875, 0)" style="text-anchor: middle;"><tspan fill="rgb(116, 116, 116)" style="font-family: Roboto; font-weight: 400; font-stretch: 100%; font-size: 12px;" x="0" dominant-baseline="auto" y="0">1978</tspan></text><text transform="translate(391.23972637455034, 12) translate(-13.61719, 0.00000) translate(13.6171875, 0)" style="text-anchor: middle;"><tspan fill="rgb(116, 116, 116)" style="font-family: Roboto; font-weight: 400; font-stretch: 100%; font-size: 12px;" x="0" dominant-baseline="auto" y="0">1980</tspan></text><text transform="translate(442.13200298869924, 12) translate(-13.61719, 0.00000) translate(13.6171875, 0)" style="text-anchor: middle;"><tspan fill="rgb(116, 116, 116)" style="font-family: Roboto; font-weight: 400; font-stretch: 100%; font-size: 12px;" x="0" dominant-baseline="auto" y="0">1982</tspan></text><text transform="translate(492.95465952540053, 12) translate(-13.61719, 0.00000) translate(13.6171875, 0)" style="text-anchor: middle;"><tspan fill="rgb(116, 116, 116)" style="font-family: Roboto; font-weight: 400; font-stretch: 100%; font-size: 12px;" x="0" dominant-baseline="auto" y="0">1984</tspan></text><text transform="translate(543.8469361395494, 12) translate(-13.61719, 0.00000) translate(13.6171875, 0)" style="text-anchor: middle;"><tspan fill="rgb(116, 116, 116)" style="font-family: Roboto; font-weight: 400; font-stretch: 100%; font-size: 12px;" x="0" dominant-baseline="auto" y="0">1986</tspan></text><text transform="translate(594.6695926762508, 12) translate(-13.61719, 0.00000) translate(13.6171875, 0)" style="text-anchor: middle;"><tspan fill="rgb(116, 116, 116)" style="font-family: Roboto; font-weight: 400; font-stretch: 100%; font-size: 12px;" x="0" dominant-baseline="auto" y="0">1988</tspan></text><text transform="translate(645.5618692903996, 12) translate(-13.61719, 0.00000) translate(13.6171875, 0)" style="text-anchor: middle;"><tspan fill="rgb(116, 116, 116)" style="font-family: Roboto; font-weight: 400; font-stretch: 100%; font-size: 12px;" x="0" dominant-baseline="auto" y="0">1990</tspan></text><text transform="translate(696.3845258271009, 12) translate(-13.61719, 0.00000) translate(13.6171875, 0)" style="text-anchor: middle;"><tspan fill="rgb(116, 116, 116)" style="font-family: Roboto; font-weight: 400; font-stretch: 100%; font-size: 12px;" x="0" dominant-baseline="auto" y="0">1992</tspan></text><text transform="translate(747.2768024412499, 12) translate(-13.61719, 0.00000) translate(13.6171875, 0)" style="text-anchor: middle;"><tspan fill="rgb(116, 116, 116)" style="font-family: Roboto; font-weight: 400; font-stretch: 100%; font-size: 12px;" x="0" dominant-baseline="auto" y="0">1994</tspan></text><text transform="translate(798.0994589779511, 12) translate(-13.61719, 0.00000) translate(13.6171875, 0)" style="text-anchor: middle;"><tspan fill="rgb(116, 116, 116)" style="font-family: Roboto; font-weight: 400; font-stretch: 100%; font-size: 12px;" x="0" dominant-baseline="auto" y="0">1996</tspan></text><text transform="translate(848.9917355920999, 12) translate(-13.61719, 0.00000) translate(13.6171875, 0)" style="text-anchor: middle;"><tspan fill="rgb(116, 116, 116)" style="font-family: Roboto; font-weight: 400; font-stretch: 100%; font-size: 12px;" x="0" dominant-baseline="auto" y="0">1998</tspan></text><text transform="translate(899.8143921288012, 12) translate(-13.61719, 0.00000) translate(13.6171875, 0)" style="text-anchor: middle;"><tspan fill="rgb(116, 116, 116)" style="font-family: Roboto; font-weight: 400; font-stretch: 100%; font-size: 12px;" x="0" dominant-baseline="auto" y="0">2000</tspan></text><text transform="translate(950.7066687429501, 12) translate(-13.61719, 0.00000) translate(13.6171875, 0)" style="text-anchor: middle;"><tspan fill="rgb(116, 116, 116)" style="font-family: Roboto; font-weight: 400; font-stretch: 100%; font-size: 12px;" x="0" dominant-baseline="auto" y="0">2002</tspan></text><text transform="translate(1001.5293252796514, 12) translate(-13.61719, 0.00000) translate(13.6171875, 0)" style="text-anchor: middle;"><tspan fill="rgb(116, 116, 116)" style="font-family: Roboto; font-weight: 400; font-stretch: 100%; font-size: 12px;" x="0" dominant-baseline="auto" y="0">2004</tspan></text><text transform="translate(1052.4216018938005, 12) translate(-13.61719, 0.00000) translate(13.6171875, 0)" style="text-anchor: middle;"><tspan fill="rgb(116, 116, 116)" style="font-family: Roboto; font-weight: 400; font-stretch: 100%; font-size: 12px;" x="0" dominant-baseline="auto" y="0">2006</tspan></text><text transform="translate(1103.2442584305018, 12) translate(-13.61719, 0.00000) translate(13.6171875, 0)" style="text-anchor: middle;"><tspan fill="rgb(116, 116, 116)" style="font-family: Roboto; font-weight: 400; font-stretch: 100%; font-size: 12px;" x="0" dominant-baseline="auto" y="0">2008</tspan></text><text transform="translate(1154.1365350446504, 12) translate(-13.61719, 0.00000) translate(13.6171875, 0)" style="text-anchor: middle;"><tspan fill="rgb(116, 116, 116)" style="font-family: Roboto; font-weight: 400; font-stretch: 100%; font-size: 12px;" x="0" dominant-baseline="auto" y="0">2010</tspan></text><text transform="translate(1204.9591915813517, 12) translate(-13.61719, 0.00000) translate(13.6171875, 0)" style="text-anchor: middle;"><tspan fill="rgb(116, 116, 116)" style="font-family: Roboto; font-weight: 400; font-stretch: 100%; font-size: 12px;" x="0" dominant-baseline="auto" y="0">2012</tspan></text><text transform="translate(1255.8514681955007, 12) translate(-13.61719, 0.00000) translate(13.6171875, 0)" style="text-anchor: middle;"><tspan fill="rgb(116, 116, 116)" style="font-family: Roboto; font-weight: 400; font-stretch: 100%; font-size: 12px;" x="0" dominant-baseline="auto" y="0">2014</tspan></text><text transform="translate(1306.674124732202, 12) translate(-13.61719, 0.00000) translate(13.6171875, 0)" style="text-anchor: middle;"><tspan fill="rgb(116, 116, 116)" style="font-family: Roboto; font-weight: 400; font-stretch: 100%; font-size: 12px;" x="0" dominant-baseline="auto" y="0">2016</tspan></text><text transform="translate(1357.5664013463509, 12) translate(-13.61719, 0.00000) translate(13.6171875, 0)" style="text-anchor: middle;"><tspan fill="rgb(116, 116, 116)" style="font-family: Roboto; font-weight: 400; font-stretch: 100%; font-size: 12px;" x="0" dominant-baseline="auto" y="0">2018</tspan></text><text transform="translate(1408.3890578830521, 12) translate(-13.61719, 0.00000) translate(13.6171875, 0)" style="text-anchor: middle;"><tspan fill="rgb(116, 116, 116)" style="font-family: Roboto; font-weight: 400; font-stretch: 100%; font-size: 12px;" x="0" dominant-baseline="auto" y="0">2020</tspan></text></g><g id="x-base-lines-svg grid-x-svg datawrapper-Zr3TR-1io9s9d-svg"/><g id="y-tick-labels-svg grid-y-svg number-axis-svg datawrapper-Zr3TR-1q7vauq-svg" transform="translate(-5, 0)"><text transform="translate(0, 1142) translate(-13.48438, 0.00000) translate(13.484375, 0)" style="text-anchor: end;"><tspan fill="rgb(162, 162, 162)" style="font-family: Roboto; font-weight: 400; font-stretch: 100%; font-size: 12px;" x="0" dominant-baseline="auto" y="0">51</tspan></text><text transform="translate(0, 1106.4375) translate(-13.75000, 0.00000) translate(13.75, 0)" style="text-anchor: end;"><tspan fill="rgb(162, 162, 162)" style="font-family: Roboto; font-weight: 400; font-stretch: 100%; font-size: 12px;" x="0" dominant-baseline="auto" y="0">52</tspan></text><text transform="translate(0, 1070.875) translate(-13.48438, 0.00000) translate(13.484375, 0)" style="text-anchor: end;"><tspan fill="rgb(162, 162, 162)" style="font-family: Roboto; font-weight: 400; font-stretch: 100%; font-size: 12px;" x="0" dominant-baseline="auto" y="0">53</tspan></text><text transform="translate(0, 1035.3125) translate(-13.75000, 0.00000) translate(13.75, 0)" style="text-anchor: end;"><tspan fill="rgb(162, 162, 162)" style="font-family: Roboto; font-weight: 400; font-stretch: 100%; font-size: 12px;" x="0" dominant-baseline="auto" y="0">54</tspan></text><text transform="translate(0, 999.75) translate(-13.75000, 0.00000) translate(13.75, 0)" style="text-anchor: end;"><tspan fill="rgb(162, 162, 162)" style="font-family: Roboto; font-weight: 400; font-stretch: 100%; font-size: 12px;" x="0" dominant-baseline="auto" y="0">55</tspan></text><text transform="translate(0, 964.1875) translate(-13.75000, 0.00000) translate(13.75, 0)" style="text-anchor: end;"><tspan fill="rgb(162, 162, 162)" style="font-family: Roboto; font-weight: 400; font-stretch: 100%; font-size: 12px;" x="0" dominant-baseline="auto" y="0">56</tspan></text><text transform="translate(0, 928.625) translate(-13.75000, 0.00000) translate(13.75, 0)" style="text-anchor: end;"><tspan fill="rgb(162, 162, 162)" style="font-family: Roboto; font-weight: 400; font-stretch: 100%; font-size: 12px;" x="0" dominant-baseline="auto" y="0">57</tspan></text><text transform="translate(0, 893.0625) translate(-13.75000, 0.00000) translate(13.75, 0)" style="text-anchor: end;"><tspan fill="rgb(162, 162, 162)" style="font-family: Roboto; font-weight: 400; font-stretch: 100%; font-size: 12px;" x="0" dominant-baseline="auto" y="0">58</tspan></text><text transform="translate(0, 857.5) translate(-13.48438, 0.00000) translate(13.484375, 0)" style="text-anchor: end;"><tspan fill="rgb(162, 162, 162)" style="font-family: Roboto; font-weight: 400; font-stretch: 100%; font-size: 12px;" x="0" dominant-baseline="auto" y="0">59</tspan></text><text transform="translate(0, 821.9375) translate(-13.75000, 0.00000) translate(13.75, 0)" style="text-anchor: end;"><tspan fill="rgb(162, 162, 162)" style="font-family: Roboto; font-weight: 400; font-stretch: 100%; font-size: 12px;" x="0" dominant-baseline="auto" y="0">60</tspan></text><text transform="translate(0, 786.375) translate(-13.48438, 0.00000) translate(13.484375, 0)" style="text-anchor: end;"><tspan fill="rgb(162, 162, 162)" style="font-family: Roboto; font-weight: 400; font-stretch: 100%; font-size: 12px;" x="0" dominant-baseline="auto" y="0">61</tspan></text><text transform="translate(0, 750.8125) translate(-13.75000, 0.00000) translate(13.75, 0)" style="text-anchor: end;"><tspan fill="rgb(162, 162, 162)" style="font-family: Roboto; font-weight: 400; font-stretch: 100%; font-size: 12px;" x="0" dominant-baseline="auto" y="0">62</tspan></text><text transform="translate(0, 715.25) translate(-13.48438, 0.00000) translate(13.484375, 0)" style="text-anchor: end;"><tspan fill="rgb(162, 162, 162)" style="font-family: Roboto; font-weight: 400; font-stretch: 100%; font-size: 12px;" x="0" dominant-baseline="auto" y="0">63</tspan></text><text transform="translate(0, 679.6875) translate(-13.75000, 0.00000) translate(13.75, 0)" style="text-anchor: end;"><tspan fill="rgb(162, 162, 162)" style="font-family: Roboto; font-weight: 400; font-stretch: 100%; font-size: 12px;" x="0" dominant-baseline="auto" y="0">64</tspan></text><text transform="translate(0, 644.125) translate(-13.75000, 0.00000) translate(13.75, 0)" style="text-anchor: end;"><tspan fill="rgb(162, 162, 162)" style="font-family: Roboto; font-weight: 400; font-stretch: 100%; font-size: 12px;" x="0" dominant-baseline="auto" y="0">65</tspan></text><text transform="translate(0, 608.5625) translate(-13.75000, 0.00000) translate(13.75, 0)" style="text-anchor: end;"><tspan fill="rgb(162, 162, 162)" style="font-family: Roboto; font-weight: 400; font-stretch: 100%; font-size: 12px;" x="0" dominant-baseline="auto" y="0">66</tspan></text><text transform="translate(0, 573) translate(-13.75000, 0.00000) translate(13.75, 0)" style="text-anchor: end;"><tspan fill="rgb(162, 162, 162)" style="font-family: Roboto; font-weight: 400; font-stretch: 100%; font-size: 12px;" x="0" dominant-baseline="auto" y="0">67</tspan></text><text transform="translate(0, 537.4375) translate(-13.75000, 0.00000) translate(13.75, 0)" style="text-anchor: end;"><tspan fill="rgb(162, 162, 162)" style="font-family: Roboto; font-weight: 400; font-stretch: 100%; font-size: 12px;" x="0" dominant-baseline="auto" y="0">68</tspan></text><text transform="translate(0, 501.875) translate(-13.48438, 0.00000) translate(13.484375, 0)" style="text-anchor: end;"><tspan fill="rgb(162, 162, 162)" style="font-family: Roboto; font-weight: 400; font-stretch: 100%; font-size: 12px;" x="0" dominant-baseline="auto" y="0">69</tspan></text><text transform="translate(0, 466.3125) translate(-13.75000, 0.00000) translate(13.75, 0)" style="text-anchor: end;"><tspan fill="rgb(162, 162, 162)" style="font-family: Roboto; font-weight: 400; font-stretch: 100%; font-size: 12px;" x="0" dominant-baseline="auto" y="0">70</tspan></text><text transform="translate(0, 430.75) translate(-13.48438, 0.00000) translate(13.484375, 0)" style="text-anchor: end;"><tspan fill="rgb(162, 162, 162)" style="font-family: Roboto; font-weight: 400; font-stretch: 100%; font-size: 12px;" x="0" dominant-baseline="auto" y="0">71</tspan></text><text transform="translate(0, 395.1875) translate(-13.75000, 0.00000) translate(13.75, 0)" style="text-anchor: end;"><tspan fill="rgb(162, 162, 162)" style="font-family: Roboto; font-weight: 400; font-stretch: 100%; font-size: 12px;" x="0" dominant-baseline="auto" y="0">72</tspan></text><text transform="translate(0, 359.625) translate(-13.48438, 0.00000) translate(13.484375, 0)" style="text-anchor: end;"><tspan fill="rgb(162, 162, 162)" style="font-family: Roboto; font-weight: 400; font-stretch: 100%; font-size: 12px;" x="0" dominant-baseline="auto" y="0">73</tspan></text><text transform="translate(0, 324.0625) translate(-13.75000, 0.00000) translate(13.75, 0)" style="text-anchor: end;"><tspan fill="rgb(162, 162, 162)" style="font-family: Roboto; font-weight: 400; font-stretch: 100%; font-size: 12px;" x="0" dominant-baseline="auto" y="0">74</tspan></text><text transform="translate(0, 288.5) translate(-13.75000, 0.00000) translate(13.75, 0)" style="text-anchor: end;"><tspan fill="rgb(162, 162, 162)" style="font-family: Roboto; font-weight: 400; font-stretch: 100%; font-size: 12px;" x="0" dominant-baseline="auto" y="0">75</tspan></text><text transform="translate(0, 252.9375) translate(-13.75000, 0.00000) translate(13.75, 0)" style="text-anchor: end;"><tspan fill="rgb(162, 162, 162)" style="font-family: Roboto; font-weight: 400; font-stretch: 100%; font-size: 12px;" x="0" dominant-baseline="auto" y="0">76</tspan></text><text transform="translate(0, 217.375) translate(-13.75000, 0.00000) translate(13.75, 0)" style="text-anchor: end;"><tspan fill="rgb(162, 162, 162)" style="font-family: Roboto; font-weight: 400; font-stretch: 100%; font-size: 12px;" x="0" dominant-baseline="auto" y="0">77</tspan></text><text transform="translate(0, 181.8125) translate(-13.75000, 0.00000) translate(13.75, 0)" style="text-anchor: end;"><tspan fill="rgb(162, 162, 162)" style="font-family: Roboto; font-weight: 400; font-stretch: 100%; font-size: 12px;" x="0" dominant-baseline="auto" y="0">78</tspan></text><text transform="translate(0, 146.25) translate(-13.48438, 0.00000) translate(13.484375, 0)" style="text-anchor: end;"><tspan fill="rgb(162, 162, 162)" style="font-family: Roboto; font-weight: 400; font-stretch: 100%; font-size: 12px;" x="0" dominant-baseline="auto" y="0">79</tspan></text><text transform="translate(0, 110.6875) translate(-13.75000, 0.00000) translate(13.75, 0)" style="text-anchor: end;"><tspan fill="rgb(162, 162, 162)" style="font-family: Roboto; font-weight: 400; font-stretch: 100%; font-size: 12px;" x="0" dominant-baseline="auto" y="0">80</tspan></text><text transform="translate(0, 75.125) translate(-13.48438, 0.00000) translate(13.484375, 0)" style="text-anchor: end;"><tspan fill="rgb(162, 162, 162)" style="font-family: Roboto; font-weight: 400; font-stretch: 100%; font-size: 12px;" x="0" dominant-baseline="auto" y="0">81</tspan></text><text transform="translate(0, 39.5625) translate(-13.75000, 0.00000) translate(13.75, 0)" style="text-anchor: end;"><tspan fill="rgb(162, 162, 162)" style="font-family: Roboto; font-weight: 400; font-stretch: 100%; font-size: 12px;" x="0" dominant-baseline="auto" y="0">82</tspan></text><text transform="translate(0, 4) translate(-13.48438, 0.00000) translate(13.484375, 0)" style="text-anchor: end;"><tspan fill="rgb(162, 162, 162)" style="font-family: Roboto; font-weight: 400; font-stretch: 100%; font-size: 12px;" x="0" dominant-baseline="auto" y="0">83</tspan></text></g><g id="y-base-lines-svg grid-y-svg datawrapper-Zr3TR-1io9s9d-svg"/></g></g><text transform="translate(1438, 1175)" id="clearance rate"><tspan fill="rgb(24,24,24)" x="0" y="12" style="font-family: Roboto; font-weight: 400; font-stretch: 100%; font-size: 12px;">clearance</tspan><tspan fill="rgb(24,24,24)" x="0" y="26" style="font-family: Roboto; font-weight: 400; font-stretch: 100%; font-size: 12px;">rate</tspan></text><g id="tooltip-layer-svg" clip-path="url(#rect-mask-tooltip-layer-nH7415PLXp32d1SdT2Vks)" transform="translate(0.00000, 35.00000)"><clipPath id="rect-mask-tooltip-layer-nH7415PLXp32d1SdT2Vks"><rect x="0" y="0" width="1500" height="1165"/></clipPath><g id="group-svg" transform="translate(19.75, 7)"/></g></g><g id="footer-svg"/></g></g></svg>